<svg version="1.1" id="Layer_1" xmlns="http://www.w3.org/2000/svg" xmlns:xlink="http://www.w3.org/1999/xlink" x="0px" y="0px"
	 width="150px" height="38px" viewBox="0 0 150 38" enable-background="new 0 0 150 38" xml:space="preserve">
<g>
	<path fill-rule="evenodd" clip-rule="evenodd" fill="#333333" d="M31.864,12.515c0.011,0.211,0.027,0.371,0.027,0.53
		c0.001,4.03,0.012,8.06-0.012,12.09c-0.003,0.575-0.111,1.176-0.298,1.722c-0.496,1.458-1.633,2.222-3.062,2.612
		c-1.406,0.386-2.842,0.391-4.273,0.245c-0.791-0.081-1.569-0.279-2.35-0.436c-0.155-0.03-0.301-0.104-0.424-0.149
		c-0.161-0.576-0.123-1.82,0.071-2.168c0.109,0.018,0.235,0.026,0.354,0.062c1.357,0.398,2.747,0.556,4.157,0.502
		c0.484-0.019,0.978-0.079,1.445-0.202c1.305-0.344,1.867-1.438,1.68-2.584c-0.665,0.125-1.326,0.283-1.995,0.368
		c-1.096,0.14-2.185,0.044-3.245-0.264c-1.743-0.505-2.907-1.63-3.452-3.362c-0.565-1.8-0.597-3.629-0.136-5.45
		c0.549-2.162,1.991-3.406,4.14-3.887c1.16-0.259,2.335-0.262,3.505-0.175c1.104,0.081,2.2,0.255,3.298,0.397
		C31.468,12.388,31.637,12.454,31.864,12.515z M29.194,14.448c-1.311-0.195-2.584-0.368-3.867-0.095
		c-1.246,0.266-2.062,1.029-2.396,2.252c-0.375,1.367-0.355,2.745,0.102,4.092c0.329,0.975,0.993,1.653,1.998,1.916
		c1.424,0.37,2.807,0.164,4.164-0.387C29.194,19.642,29.194,17.083,29.194,14.448z"/>
	<path fill-rule="evenodd" clip-rule="evenodd" fill="#333333" d="M124.931,16.991c-0.031-0.503-0.016-0.977-0.099-1.432
		c-0.088-0.479-0.43-0.825-0.881-0.975c-0.521-0.173-1.064-0.327-1.607-0.372c-1.458-0.118-2.893,0.076-4.305,0.458
		c-0.189,0.05-0.402,0.206-0.606-0.053c0-0.634,0-1.297,0-2.037c0.522-0.129,1.035-0.277,1.556-0.38
		c1.813-0.356,3.627-0.406,5.433,0.049c0.314,0.079,0.624,0.19,0.921,0.324c1.5,0.679,2.216,1.9,2.236,3.497
		c0.038,2.92,0.011,5.841,0.009,8.762c0,0.063-0.022,0.126-0.04,0.229c-0.445,0.208-0.917,0.061-1.458,0.115
		c-0.225-0.279-0.472-0.584-0.657-0.819c-0.862,0.242-1.604,0.498-2.363,0.648c-1.262,0.249-2.53,0.231-3.781-0.099
		c-1.853-0.487-2.841-1.705-2.917-3.62c-0.021-0.469,0.018-0.95,0.11-1.409c0.258-1.291,1.055-2.168,2.281-2.586
		c0.688-0.233,1.424-0.404,2.145-0.426c1.235-0.039,2.475,0.061,3.712,0.103C124.694,16.971,124.771,16.979,124.931,16.991z
		 M124.89,19.235c-0.657-0.052-1.271-0.118-1.889-0.146c-0.844-0.037-1.695-0.107-2.53,0.105c-0.537,0.137-1.009,0.38-1.265,0.911
		c-0.565,1.165,0.072,2.478,1.341,2.715c1.182,0.219,2.338,0.065,3.458-0.353c0.314-0.118,0.606-0.296,0.885-0.433
		C124.89,21.088,124.89,20.211,124.89,19.235z"/>
	<path fill-rule="evenodd" clip-rule="evenodd" fill="#333333" d="M46.004,18.557c-0.038,1.061-0.175,2.089-0.53,3.084
		c-0.569,1.602-1.664,2.663-3.292,3.15c-1.516,0.454-3.052,0.487-4.589,0.113c-1.839-0.446-3.078-1.579-3.708-3.357
		c-0.66-1.863-0.741-3.761-0.211-5.672c0.571-2.067,1.924-3.308,4.019-3.749c1.293-0.272,2.589-0.274,3.883-0.004
		c2.337,0.489,3.696,1.949,4.158,4.258C45.876,17.095,45.917,17.83,46.004,18.557z M39.651,14.169
		c-1.912,0.013-3.055,0.846-3.46,2.6c-0.275,1.19-0.271,2.397,0.026,3.585c0.384,1.54,1.289,2.363,2.859,2.521
		c2.213,0.223,3.677-0.645,4.087-2.937c0.192-1.067,0.183-2.145-0.073-3.204c-0.334-1.382-1.171-2.266-2.611-2.499
		C40.206,14.192,39.927,14.191,39.651,14.169z"/>
	<path fill-rule="evenodd" clip-rule="evenodd" fill="#333333" d="M19.309,18.529c-0.081,0.979-0.186,1.931-0.473,2.86
		c-0.557,1.793-1.734,2.959-3.542,3.453c-1.473,0.402-2.962,0.425-4.45,0.054c-1.84-0.458-3.067-1.599-3.693-3.374
		c-0.658-1.865-0.73-3.765-0.196-5.672c0.571-2.045,1.92-3.279,3.991-3.718c1.442-0.305,2.882-0.295,4.311,0.089
		c1.959,0.528,3.173,1.808,3.648,3.757C19.108,16.813,19.178,17.679,19.309,18.529z M9.262,18.48c0.054,0.533,0.069,1.074,0.169,1.6
		c0.256,1.349,0.938,2.376,2.354,2.692c0.547,0.122,1.139,0.155,1.697,0.099c1.581-0.161,2.505-1.009,2.876-2.56
		c0.083-0.347,0.136-0.705,0.164-1.061c0.085-1.064,0.036-2.118-0.357-3.129c-0.369-0.949-1.061-1.553-2.038-1.807
		c-0.719-0.186-1.452-0.182-2.183-0.048c-1.164,0.213-1.926,0.898-2.329,1.996C9.354,16.977,9.28,17.72,9.262,18.48z"/>
	<path fill-rule="evenodd" clip-rule="evenodd" fill="#333333" d="M141.045,25.026c-0.411,0.185-2.151,0.194-2.623,0.011
		c-0.009-0.167-0.029-0.356-0.029-0.547c0-2.545,0.005-5.091-0.004-7.636c-0.003-0.339-0.029-0.688-0.112-1.016
		c-0.223-0.882-0.82-1.378-1.705-1.543c-1.089-0.203-2.11-0.003-3.056,0.555c-0.42,0.247-0.807,0.545-1.22,0.828
		c0,3.146,0,6.259,0,9.353c-0.413,0.186-2.226,0.186-2.646,0.005c0-4.334,0-8.679,0-13.065c0.636,0,1.229,0,1.859,0
		c0.124,0.459,0.245,0.911,0.382,1.429c0.207-0.12,0.382-0.222,0.56-0.324c1.388-0.801,2.865-1.221,4.482-1.134
		c2.357,0.127,3.849,1.523,4.082,3.869c0.038,0.373,0.054,0.749,0.054,1.123c0.005,2.513,0.003,5.025,0,7.538
		C141.069,24.664,141.054,24.856,141.045,25.026z"/>
	<path fill-rule="evenodd" clip-rule="evenodd" fill="#333333" d="M85.186,25.038c-0.119-0.562-0.083-12.689,0.067-13.107
		c0.259,0,0.546,0,0.833,0c0.276,0,0.552,0,0.898,0c0.142,0.491,0.28,0.966,0.42,1.448c0.433-0.23,0.855-0.476,1.295-0.685
		c1.389-0.663,2.846-0.938,4.373-0.669c1.958,0.344,3.078,1.489,3.393,3.453c0.069,0.433,0.11,0.875,0.112,1.313
		c0.009,2.594,0.005,5.187,0.005,7.78c0,0.161-0.016,0.321-0.027,0.559c-0.86,0.075-1.693,0.035-2.58,0.021
		c-0.021-0.226-0.052-0.412-0.052-0.599c-0.002-2.479,0.002-4.959-0.007-7.438c-0.002-0.389-0.029-0.785-0.104-1.165
		c-0.18-0.903-0.808-1.481-1.715-1.652c-1.202-0.226-2.3,0.056-3.317,0.689c-0.33,0.206-0.631,0.46-0.979,0.719
		c0,3.107,0,6.216,0,9.299C87.382,25.221,85.589,25.227,85.186,25.038z"/>
	<path fill-rule="evenodd" clip-rule="evenodd" fill="#333333" d="M98.715,24.563c-0.159-0.715-0.119-2.003,0.07-2.368
		c0.152,0.037,0.32,0.072,0.487,0.12c1.464,0.432,2.957,0.673,4.484,0.569c0.527-0.033,1.066-0.159,1.559-0.348
		c0.628-0.24,0.9-0.813,0.817-1.46c-0.093-0.703-0.427-1.08-1.137-1.218c-0.301-0.059-0.613-0.063-0.923-0.076
		c-0.959-0.038-1.922-0.028-2.879-0.113c-0.736-0.065-1.419-0.353-1.996-0.845c-0.741-0.632-1.063-1.473-1.141-2.409
		c-0.041-0.467-0.027-0.95,0.047-1.412c0.19-1.196,0.928-1.982,2.012-2.456c1.096-0.478,2.259-0.599,3.44-0.619
		c1.412-0.025,2.796,0.17,4.159,0.525c0.139,0.036,0.271,0.094,0.446,0.157c0.055,0.759,0.086,1.504-0.029,2.312
		c-0.227-0.057-0.365-0.083-0.5-0.126c-1.521-0.493-3.081-0.716-4.676-0.583c-0.56,0.047-1.127,0.18-1.652,0.378
		c-0.663,0.248-0.895,0.733-0.834,1.44c0.052,0.579,0.385,0.979,1.045,1.135c0.424,0.1,0.869,0.127,1.307,0.143
		c0.617,0.023,1.239-0.011,1.857,0.012c0.422,0.016,0.851,0.05,1.26,0.141c1.763,0.391,2.737,1.553,2.856,3.369
		c0.045,0.674,0,1.337-0.268,1.97c-0.501,1.194-1.488,1.768-2.677,2.067c-1.556,0.392-3.135,0.357-4.711,0.145
		C100.323,24.901,99.517,24.715,98.715,24.563z"/>
	<path fill-rule="evenodd" clip-rule="evenodd" fill="#333333" d="M148.368,22.898c0,0.755,0,1.443,0,2.137
		c-0.079,0.038-0.135,0.089-0.193,0.091c-0.912,0.035-1.828,0.099-2.727-0.118c-1.329-0.322-2.104-1.245-2.266-2.673
		c-0.038-0.323-0.056-0.649-0.056-0.975c-0.005-3.591-0.005-7.181-0.003-10.77c0-0.209,0.021-0.419,0.034-0.677
		c0.581-0.121,1.141-0.083,1.749-0.03c0.162,0.654,0.321,1.297,0.499,2.013c0.965,0,1.934,0,2.931,0
		c0.135,0.764,0.076,1.454,0.051,2.179c-0.857,0.168-1.69,0.014-2.555,0.107c-0.01,0.14-0.029,0.281-0.029,0.421
		c0,2.219,0,4.439,0,6.658c0,0.099,0.002,0.195,0.009,0.294c0.056,0.911,0.485,1.329,1.395,1.342
		C147.577,22.902,147.95,22.898,148.368,22.898z"/>
	<path fill-rule="evenodd" clip-rule="evenodd" fill="#333333" d="M110.287,9.882c0.593,0,1.139,0,1.735,0
		c0.169,0.668,0.335,1.324,0.512,2.028c0.981,0,1.938,0,2.951,0c0.097,0.758,0.081,1.457,0.014,2.222c-0.881,0-1.702,0-2.58,0
		c0,0.225,0,0.384,0,0.542c0,2.186,0,4.371,0,6.556c0,0.1-0.003,0.197,0.002,0.295c0.05,0.938,0.487,1.361,1.422,1.373
		c0.354,0.004,0.712,0.001,1.141,0.001c0.107,0.744,0.069,1.442,0.029,2.135c-0.108,0.047-0.167,0.093-0.228,0.095
		c-0.959,0.028-1.922,0.097-2.867-0.156c-0.916-0.243-1.574-0.801-1.868-1.699c-0.166-0.502-0.276-1.048-0.281-1.574
		c-0.022-3.768-0.011-7.535-0.011-11.302C110.258,10.251,110.273,10.107,110.287,9.882z"/>
	<path fill-rule="evenodd" clip-rule="evenodd" fill="#333333" d="M5.158,25.124c-0.885,0.067-1.728,0.063-2.609,0.004
		c0-5.956,0-11.837,0-17.704c0.381-0.15,1.836-0.188,2.578-0.063c0.02,0.209,0.061,0.442,0.061,0.674
		C5.191,13.043,5.19,18.053,5.19,23.063c0,0.505,0.002,1.011-0.001,1.517C5.188,24.737,5.171,24.896,5.158,25.124z"/>
	<path fill-rule="evenodd" clip-rule="evenodd" fill="#333333" d="M80.452,11.965c0.894,0,1.716,0,2.577,0c0,4.391,0,8.746,0,13.178
		c-0.868,0.036-1.7,0.042-2.577-0.009C80.452,20.734,80.452,16.381,80.452,11.965z"/>
	<path fill-rule="evenodd" clip-rule="evenodd" fill="#333333" d="M83.023,9.512c-0.85,0-1.659,0-2.55,0
		c-0.121-0.713-0.065-1.424-0.036-2.177c0.898,0,1.719,0,2.586,0C83.023,8.058,83.023,8.748,83.023,9.512z"/>
</g>
<radialGradient id="SVGID_1_" cx="-1.0166" cy="32.5156" r="10.6056" gradientTransform="matrix(1.4618 0 0 0.5116 60.2256 15.8794)" gradientUnits="userSpaceOnUse">
	<stop  offset="0.5323" style="stop-color:#000000;stop-opacity:0.5"/>
	<stop  offset="0.587" style="stop-color:#050505;stop-opacity:0.4415"/>
	<stop  offset="0.6486" style="stop-color:#121212;stop-opacity:0.3757"/>
	<stop  offset="0.7136" style="stop-color:#282829;stop-opacity:0.3062"/>
	<stop  offset="0.7809" style="stop-color:#474748;stop-opacity:0.2342"/>
	<stop  offset="0.8501" style="stop-color:#6F7071;stop-opacity:0.1602"/>
	<stop  offset="0.9209" style="stop-color:#A0A1A3;stop-opacity:0.0846"/>
	<stop  offset="0.9916" style="stop-color:#D9DADD;stop-opacity:0.009"/>
	<stop  offset="1" style="stop-color:#E0E1E4;stop-opacity:0"/>
</radialGradient>
<ellipse fill-rule="evenodd" clip-rule="evenodd" fill="url(#SVGID_1_)" cx="58.739" cy="32.516" rx="20.407" ry="5.484"/>
<g>
	<linearGradient id="SVGID_2_" gradientUnits="userSpaceOnUse" x1="48.0928" y1="20.4365" x2="75.0825" y2="20.4365">
		<stop  offset="0.2344" style="stop-color:#C5CBC9"/>
		<stop  offset="0.2898" style="stop-color:#E3E5E4"/>
		<stop  offset="0.3266" style="stop-color:#F2F2F2"/>
	</linearGradient>
	<path fill="url(#SVGID_2_)" d="M48.093,6.237c0.172,1.012,0.336,1.404,0.336,1.404l0.587,0.424c0,0,4.57,21.756,5.256,24.058
		c0.685,2.302,2.439,3.33,4.868,3.771c2.428,0.441,6.492,0.465,9.479-0.832c2.784-1.209,3.207-1.493,3.418-3.744
		c0.337-3.58,2.409-25.081,2.409-25.081c0.424-0.571,0.653-0.757,0.636-1.529L48.093,6.237z"/>
	<path d="M62.425,36.868L62.425,36.868c-1.209,0-2.389-0.097-3.412-0.283c-2.99-0.542-4.71-1.896-5.415-4.261
		c-0.653-2.19-4.666-21.241-5.214-23.849l-0.528-0.381l-0.077-0.183C47.76,7.863,47.581,7.415,47.4,6.355L47.268,5.58l28.501-1.615
		l0.016,0.729c0.019,0.921-0.283,1.316-0.631,1.772c-0.009,0.012-0.019,0.024-0.028,0.036c-0.21,2.177-2.074,21.525-2.389,24.882
		c-0.25,2.657-1.002,3.091-3.838,4.322C66.686,36.667,64.157,36.868,62.425,36.868z M49.023,7.204l0.625,0.451l0.055,0.266
		c0.046,0.217,4.572,21.755,5.241,24.003c0.544,1.824,1.876,2.836,4.32,3.278c0.928,0.168,2.05,0.262,3.161,0.262
		c2.259,0.001,4.359-0.372,5.913-1.047c2.712-1.178,2.824-1.297,3-3.165c0.332-3.54,2.387-24.867,2.407-25.083l0.019-0.195
		l0.117-0.156c0.055-0.074,0.107-0.142,0.155-0.206c0.043-0.055,0.08-0.104,0.112-0.149L48.94,6.893
		C48.973,7.024,49.001,7.127,49.023,7.204z"/>
</g>
<g>
	<path fill="#C5CBC9" d="M75.082,4.563c0.143,2.444-5.782,4.682-13.235,5.118S48.095,8.493,48.093,6.044
		c-0.003-2.68,5.689-4.802,13.234-5.217C69.354,0.385,74.938,2.117,75.082,4.563z"/>
	<path d="M59.448,10.253c-5.709,0-11.854-1.317-11.857-4.209C47.586,2.615,54.474,0.702,61.3,0.326
		c0.84-0.046,1.674-0.07,2.479-0.07c6.91,0,11.654,1.718,11.803,4.276c0.183,3.138-6.925,5.252-13.708,5.649
		C61.063,10.229,60.246,10.253,59.448,10.253z M63.779,1.26c-0.786,0-1.602,0.023-2.424,0.068
		c-7.278,0.401-12.764,2.427-12.762,4.715c0.002,1.542,4.152,3.206,10.854,3.206c0.779,0,1.575-0.023,2.369-0.07
		c7.769-0.455,12.872-2.739,12.764-4.588C74.485,2.977,70.668,1.26,63.779,1.26z"/>
</g>
<path fill="#FFFFFF" d="M74.945,4.451c0.139,2.381-5.583,4.557-12.781,4.978C54.967,9.85,49.016,8.263,49.016,5.877
	c0-2.807,5.357-4.669,12.644-5.07C69.412,0.381,74.806,2.07,74.945,4.451z"/>
<g>
	<path fill="#C00505" d="M73.434,4.181c-0.104-1.775-5.272-2.84-12.329-2.463c-6.778,0.362-11.806,2.27-11.806,3.919
		c0,1.779,5.488,2.899,12.182,2.507c2.028-0.119,3.932-0.367,5.601-0.703c0.242,0.782,1.414,1.375,2.826,1.375
		c1.586,0,2.872-0.75,2.872-1.673c0-0.485-0.354-0.922-0.922-1.228C72.891,5.37,73.468,4.774,73.434,4.181z"/>
	<path d="M69.908,9.017c-1.38,0-2.579-0.557-2.952-1.346C65.275,8,63.39,8.233,61.494,8.344c-0.891,0.052-1.779,0.079-2.641,0.079
		c-4.855,0-9.754-0.862-9.754-2.786c0-1.918,5.381-3.766,11.995-4.12c0.943-0.05,1.873-0.076,2.764-0.076
		c5.841,0,9.679,1.071,9.775,2.728c0.036,0.605-0.428,1.196-1.38,1.755c0.467,0.335,0.728,0.767,0.728,1.218
		C72.981,8.193,71.631,9.017,69.908,9.017z M67.22,7.208l0.054,0.174c0.216,0.703,1.35,1.234,2.634,1.234
		c1.449,0,2.672-0.674,2.672-1.473c0-0.388-0.299-0.771-0.817-1.052l-0.331-0.178l0.332-0.175c0.976-0.515,1.498-1.063,1.47-1.545
		c-0.081-1.383-3.937-2.35-9.375-2.35c-0.885,0-1.806,0.025-2.742,0.075C54.468,2.273,49.5,4.174,49.5,5.636
		c0,1.359,4.021,2.385,9.353,2.385c0.854,0,1.735-0.026,2.617-0.078c1.94-0.113,3.867-0.355,5.572-0.699L67.22,7.208z"/>
</g>
<linearGradient id="SVGID_3_" gradientUnits="userSpaceOnUse" x1="52.1416" y1="5.0088" x2="72.9575" y2="5.0088">
	<stop  offset="0" style="stop-color:#EE2626"/>
	<stop  offset="0.488" style="stop-color:#EF4949"/>
	<stop  offset="0.7688" style="stop-color:#F05858"/>
</linearGradient>
<path fill="url(#SVGID_3_)" d="M72.956,4.132c-0.09-1.525-4.546-2.439-10.632-2.114c-5.846,0.313-10.183,1.953-10.183,3.37
	c-0.001,1.528,4.732,2.49,10.505,2.152c1.738-0.102,3.372-0.313,4.805-0.6c0.207,0.64,1.209,1.125,2.416,1.125
	c1.356,0,2.457-0.614,2.457-1.371c0-0.406-0.318-0.772-0.822-1.023C72.453,5.189,72.986,4.66,72.956,4.132z"/>
<path fill="#F2E8CA" d="M70.422,14.339c1.202-0.43,2.192-0.918,3.038-1.406c0.11-1.167,0.211-2.245,0.299-3.179
	c-0.333,0.224-0.672,0.448-1.033,0.67c-0.516,0.318-1.073,0.632-1.716,0.933c-0.962,0.45-2.115,0.872-3.593,1.214
	c-1.477,0.341-3.276,0.603-5.518,0.719c-0.477,0.024-0.943,0.036-1.397,0.036c-3.643,0-6.529-0.75-8.495-1.491
	c-0.938-0.354-1.504-0.621-2.002-0.887c0.183,0.886,0.395,1.919,0.635,3.078c0.21,0.086,0.277,0.112,0.508,0.199
	c2.195,0.828,5.376,1.648,9.354,1.648l0,0c0.496,0,1.003-0.013,1.521-0.04c2.1-0.109,3.868-0.34,5.384-0.656
	C68.546,14.94,69.541,14.655,70.422,14.339z"/>
<linearGradient id="SVGID_4_" gradientUnits="userSpaceOnUse" x1="50.2529" y1="12.9902" x2="73.4546" y2="12.9902">
	<stop  offset="0" style="stop-color:#6F442D"/>
	<stop  offset="0.0167" style="stop-color:#754A30"/>
	<stop  offset="0.0946" style="stop-color:#8A603A"/>
	<stop  offset="0.1855" style="stop-color:#9B7241"/>
	<stop  offset="0.296" style="stop-color:#A67E47"/>
	<stop  offset="0.4466" style="stop-color:#AD854A"/>
	<stop  offset="0.8191" style="stop-color:#AF874B"/>
</linearGradient>
<path fill="url(#SVGID_4_)" d="M51.436,14.132c-0.16-0.054-0.313-0.108-0.46-0.162c-0.055-0.373-0.11-0.747-0.164-1.12
	c-0.05-0.351-0.099-0.701-0.148-1.052c0.151,0.063,0.31,0.127,0.476,0.192c0.008,0.055,0.014,0.111,0.022,0.166
	c0.09,0.65,0.177,1.3,0.271,1.95C51.433,14.115,51.434,14.123,51.436,14.132z M50.574,13.822c-0.028-0.19-0.055-0.38-0.083-0.57
	c-0.071-0.481-0.139-0.962-0.21-1.442c-0.009-0.063-0.019-0.125-0.028-0.188 M52.242,13.741c-0.063-0.472-0.124-0.944-0.184-1.417
	c-0.178-0.06-0.347-0.12-0.508-0.178c0.026,0.194,0.051,0.389,0.078,0.583c0.068,0.512,0.137,1.024,0.212,1.536
	c0.161,0.051,0.326,0.102,0.497,0.153C52.303,14.193,52.272,13.967,52.242,13.741z M60.86,14.842
	c-0.035-0.401-0.071-0.802-0.107-1.204c-0.141,0.002-0.284,0.005-0.424,0.005c-0.068,0-0.137-0.001-0.206-0.001
	c0.009,0.093,0.017,0.186,0.026,0.279c0.051,0.544,0.101,1.089,0.153,1.634c0.009,0,0.018,0,0.027,0l0,0
	c0.195,0,0.394-0.004,0.592-0.008C60.901,15.312,60.881,15.077,60.86,14.842z M54.167,13.871c-0.042-0.323-0.08-0.646-0.118-0.97
	c-0.192-0.046-0.378-0.095-0.561-0.144c0.084,0.68,0.173,1.359,0.265,2.038c0.18,0.043,0.364,0.085,0.553,0.125
	C54.258,14.571,54.212,14.221,54.167,13.871z M53.22,14.11c-0.066-0.494-0.128-0.987-0.189-1.481
	c-0.185-0.053-0.364-0.107-0.536-0.162c0.007,0.061,0.015,0.122,0.022,0.182c0.081,0.631,0.163,1.263,0.25,1.893
	c0.172,0.047,0.348,0.095,0.53,0.142C53.271,14.492,53.244,14.302,53.22,14.11z M55.287,14.583c-0.036-0.275-0.074-0.55-0.106-0.825
	c-0.025-0.208-0.048-0.416-0.071-0.624c-0.199-0.039-0.392-0.08-0.582-0.122c0.042,0.351,0.083,0.702,0.126,1.053
	c0.039,0.318,0.081,0.635,0.125,0.953c0.188,0.037,0.381,0.072,0.577,0.107C55.333,14.945,55.31,14.764,55.287,14.583z
	 M71.21,12.625c-0.003-0.322-0.008-0.645-0.013-0.967c-0.154,0.07-0.309,0.137-0.466,0.204c0.002,0.108,0.004,0.218,0.007,0.326
	c0.008,0.455,0.015,0.909,0.02,1.363c0.001,0.118,0.003,0.235,0.004,0.353c0.152-0.056,0.302-0.114,0.452-0.174
	C71.212,13.361,71.212,12.992,71.21,12.625z M73.085,10.654c-0.003,0.107-0.007,0.214-0.009,0.321
	c-0.009,0.332-0.016,0.662-0.023,0.993c-0.007,0.306-0.015,0.611-0.021,0.916c0.116-0.061,0.23-0.123,0.345-0.187
	c0.006-0.171,0.011-0.343,0.018-0.515c0.01-0.302,0.019-0.604,0.029-0.905c0.01-0.284,0.021-0.567,0.031-0.851
	C73.333,10.502,73.211,10.578,73.085,10.654z M61.923,13.892c-0.008-0.097-0.016-0.195-0.023-0.292
	c-0.042,0.002-0.083,0.005-0.125,0.007c-0.166,0.008-0.333,0.014-0.5,0.019c0.02,0.247,0.04,0.494,0.062,0.74
	c0.033,0.389,0.067,0.778,0.1,1.167c0.145-0.005,0.29-0.009,0.435-0.017c0.061-0.003,0.12-0.007,0.181-0.01
	c-0.012-0.157-0.023-0.315-0.037-0.472C61.985,14.653,61.955,14.272,61.923,13.892z M69.854,12.904
	c0.011,0.434,0.026,0.867,0.029,1.301c0,0.001,0,0.001,0,0.002c0.164-0.053,0.328-0.107,0.487-0.163
	c-0.001-0.073-0.001-0.146-0.002-0.219c-0.011-0.601-0.028-1.202-0.041-1.803c-0.163,0.063-0.328,0.124-0.495,0.184
	C69.84,12.439,69.847,12.672,69.854,12.904z M69.458,14.074c-0.016-0.574-0.034-1.147-0.053-1.721
	c-0.172,0.057-0.346,0.11-0.522,0.163c0.003,0.098,0.008,0.197,0.011,0.295c0.019,0.559,0.042,1.117,0.053,1.675
	c0.175-0.048,0.347-0.097,0.517-0.148C69.463,14.25,69.462,14.161,69.458,14.074z M67.508,14.831
	c-0.011-0.351-0.024-0.702-0.041-1.052c-0.013-0.295-0.029-0.59-0.043-0.885c-0.188,0.042-0.378,0.083-0.573,0.121
	c0.027,0.506,0.054,1.012,0.074,1.518c0.005,0.137,0.01,0.274,0.015,0.412c0.135-0.026,0.269-0.051,0.4-0.077
	C67.397,14.854,67.452,14.843,67.508,14.831z M68.48,13.704c-0.01-0.354-0.029-0.707-0.044-1.061
	c-0.18,0.049-0.363,0.096-0.547,0.141c0.016,0.328,0.032,0.657,0.045,0.985c0.012,0.32,0.022,0.641,0.031,0.961
	c0.18-0.041,0.358-0.083,0.535-0.128C68.494,14.303,68.489,14.003,68.48,13.704z M66.431,14.273c-0.017-0.39-0.04-0.779-0.062-1.168
	c-0.193,0.035-0.39,0.068-0.588,0.1c0.025,0.42,0.049,0.841,0.071,1.261c0.011,0.219,0.02,0.438,0.029,0.657
	c0.195-0.03,0.387-0.062,0.578-0.094C66.45,14.777,66.442,14.525,66.431,14.273z M65.39,15.117
	c-0.029-0.613-0.065-1.226-0.104-1.838c-0.199,0.028-0.399,0.055-0.604,0.08c0.028,0.409,0.056,0.818,0.08,1.227
	c0.012,0.229,0.023,0.457,0.035,0.685c0.201-0.024,0.399-0.049,0.596-0.076C65.392,15.168,65.392,15.143,65.39,15.117z
	 M72.004,13.391c0.002-0.71,0.003-1.419,0.006-2.128c-0.144,0.076-0.289,0.148-0.435,0.219c0,0.031,0,0.062,0,0.093
	c0.001,0.431,0.01,0.862,0.009,1.293c0,0.236-0.001,0.473-0.002,0.709C71.723,13.516,71.865,13.455,72.004,13.391z M72.759,11.149
	c0.001-0.101,0.003-0.202,0.005-0.303c-0.135,0.079-0.268,0.154-0.401,0.227c-0.002,0.199-0.004,0.397-0.007,0.596
	c-0.006,0.521-0.01,1.042-0.016,1.564c0.129-0.062,0.259-0.126,0.389-0.192C72.74,12.41,72.749,11.78,72.759,11.149z M56.431,15.267
	c-0.077-0.646-0.151-1.292-0.226-1.938c-0.206-0.032-0.406-0.065-0.604-0.101c0.018,0.154,0.035,0.309,0.053,0.463
	c0.053,0.438,0.108,0.875,0.165,1.312c0.009,0.068,0.019,0.136,0.028,0.205c0.193,0.03,0.389,0.059,0.587,0.086
	C56.433,15.285,56.432,15.276,56.431,15.267z M64.289,15.208c-0.024-0.461-0.054-0.921-0.084-1.381
	c-0.009-0.137-0.019-0.272-0.029-0.408c-0.202,0.022-0.408,0.042-0.614,0.062c0.034,0.461,0.067,0.922,0.097,1.383
	c0.011,0.175,0.021,0.349,0.032,0.523c0.204-0.019,0.406-0.038,0.606-0.06C64.294,15.287,64.292,15.247,64.289,15.208z
	 M58.585,14.829c-0.044-0.417-0.086-0.833-0.129-1.25c-0.211-0.015-0.418-0.031-0.622-0.05c0.023,0.237,0.048,0.475,0.075,0.711
	c0.045,0.408,0.091,0.817,0.138,1.225c0.201,0.016,0.406,0.029,0.612,0.041C58.635,15.281,58.609,15.055,58.585,14.829z
	 M57.48,14.926c-0.045-0.38-0.09-0.761-0.131-1.141c-0.011-0.103-0.021-0.206-0.033-0.309c-0.205-0.022-0.407-0.047-0.606-0.074
	c0.022,0.211,0.045,0.423,0.068,0.634c0.05,0.44,0.104,0.881,0.156,1.321c0.199,0.023,0.401,0.044,0.604,0.064
	C57.52,15.256,57.5,15.091,57.48,14.926z M63.154,15.049c-0.035-0.509-0.071-1.017-0.109-1.525
	c-0.206,0.016-0.415,0.032-0.625,0.045c0.022,0.287,0.044,0.574,0.066,0.861c0.027,0.349,0.054,0.697,0.079,1.046
	c0.207-0.014,0.41-0.029,0.613-0.045C63.171,15.303,63.163,15.176,63.154,15.049z M59.752,15.192
	c-0.028-0.286-0.057-0.571-0.085-0.856c-0.022-0.234-0.043-0.468-0.066-0.703c-0.212-0.005-0.421-0.013-0.628-0.024
	c0,0.001,0,0.001,0,0.003c0.033,0.333,0.069,0.666,0.104,0.999c0.031,0.307,0.062,0.614,0.094,0.921
	c0.202,0.008,0.409,0.013,0.616,0.017C59.775,15.431,59.763,15.312,59.752,15.192z"/>
<line fill="#7F7F7F" x1="55.046" y1="30.585" x2="55.046" y2="30.585"/>
<path fill="#F2E8CA" d="M67.954,31.01c-1.139,0.375-2.706,0.698-5.098,0.821c-0.38,0.021-0.748,0.029-1.104,0.029
	c-2.126,0-3.816-0.325-4.968-0.647c-0.425-0.118-0.776-0.237-1.05-0.338l0.18,1.201c0.178,0.056,0.371,0.115,0.581,0.174
	c1.234,0.345,3.021,0.688,5.258,0.688c0.374,0,0.76-0.01,1.159-0.031c2.462-0.128,4.134-0.465,5.378-0.874
	c0.571-0.188,1.051-0.391,1.471-0.59l0.099-1.203C69.354,30.501,68.694,30.767,67.954,31.01z"/>
<g>
	<path fill="#7D5429" d="M57.888,32.265c-0.027-0.206-0.053-0.415-0.079-0.622c-0.105-0.022-0.209-0.045-0.308-0.067
		c0.033,0.255,0.066,0.51,0.101,0.764c0.099,0.021,0.2,0.042,0.304,0.062C57.902,32.354,57.895,32.31,57.888,32.265z"/>
	<path fill="#7D5429" d="M60.281,32.076c-0.003-0.031-0.007-0.063-0.01-0.095c-0.118-0.009-0.234-0.018-0.349-0.027
		c0.01,0.088,0.019,0.178,0.029,0.268c0.018,0.155,0.036,0.312,0.055,0.467c0.114,0.01,0.23,0.019,0.348,0.025
		C60.329,32.502,60.304,32.289,60.281,32.076z"/>
	<path fill="#7D5429" d="M57.322,32.052c-0.023-0.178-0.046-0.357-0.07-0.535c-0.1-0.024-0.197-0.049-0.29-0.072
		c0.001,0.007,0.002,0.015,0.003,0.021c0.034,0.251,0.067,0.501,0.104,0.752c0.092,0.022,0.188,0.045,0.286,0.067
		C57.345,32.206,57.333,32.13,57.322,32.052z"/>
	<path fill="#7D5429" d="M59.086,32.539c-0.021-0.16-0.043-0.318-0.062-0.478c-0.009-0.07-0.017-0.143-0.025-0.215
		c-0.113-0.016-0.223-0.031-0.331-0.049c0.017,0.148,0.033,0.294,0.051,0.442c0.013,0.101,0.027,0.203,0.04,0.306
		c0.109,0.016,0.22,0.031,0.333,0.046C59.091,32.574,59.088,32.557,59.086,32.539z"/>
	<path fill="#7D5429" d="M56.73,31.38c-0.094-0.025-0.183-0.052-0.27-0.078c0.01,0.078,0.021,0.155,0.033,0.233
		c0.026,0.184,0.054,0.37,0.081,0.555c0.084,0.022,0.171,0.047,0.264,0.069C56.801,31.901,56.767,31.641,56.73,31.38z"/>
	<path fill="#7D5429" d="M59.632,31.926c-0.119-0.014-0.235-0.027-0.348-0.04c0.006,0.045,0.01,0.092,0.015,0.137
		c0.025,0.202,0.051,0.403,0.076,0.604c0.112,0.014,0.227,0.025,0.343,0.036C59.688,32.418,59.66,32.171,59.632,31.926z"/>
	<path fill="#7D5429" d="M58.437,32.126c-0.016-0.124-0.03-0.249-0.045-0.373c-0.11-0.02-0.216-0.038-0.32-0.059
		c0.031,0.252,0.064,0.503,0.098,0.755c0.104,0.019,0.209,0.037,0.318,0.054C58.471,32.377,58.453,32.251,58.437,32.126z"/>
	<path fill="#7D5429" d="M56.309,31.769c-0.027-0.18-0.053-0.359-0.079-0.538c-0.088-0.028-0.171-0.055-0.249-0.082
		c0.021,0.144,0.044,0.288,0.065,0.432c0.019,0.123,0.038,0.247,0.056,0.37c0.079,0.024,0.159,0.05,0.242,0.074
		C56.333,31.939,56.321,31.854,56.309,31.769z"/>
	<path fill="#7D5429" d="M64.532,31.876c0.016,0.223,0.03,0.443,0.044,0.665c0,0.021,0.001,0.04,0.002,0.06
		c0.117-0.013,0.232-0.026,0.346-0.039c-0.013-0.242-0.027-0.483-0.042-0.726C64.768,31.851,64.651,31.864,64.532,31.876z"/>
	<path fill="#7D5429" d="M67.271,31.394c-0.1,0.027-0.2,0.052-0.302,0.076c0,0.015,0.001,0.029,0.001,0.043
		c0.008,0.231,0.016,0.465,0.024,0.696c0.101-0.023,0.201-0.048,0.3-0.072C67.286,31.89,67.278,31.642,67.271,31.394z"/>
	<path fill="#7D5429" d="M62.92,32.004c-0.019,0.002-0.037,0.003-0.055,0.004c-0.103,0.006-0.205,0.008-0.307,0.012
		c0.01,0.131,0.021,0.264,0.033,0.394c0.009,0.11,0.018,0.22,0.028,0.33c0.094-0.005,0.188-0.007,0.283-0.012
		c0.025-0.002,0.05-0.003,0.076-0.004c-0.016-0.196-0.033-0.394-0.048-0.589C62.927,32.094,62.924,32.049,62.92,32.004z"/>
	<path fill="#7D5429" d="M61.281,32.556c0.007,0.066,0.014,0.134,0.02,0.201c0.118,0.002,0.238,0.003,0.358,0.004
		c-0.012-0.121-0.025-0.243-0.036-0.365c-0.011-0.119-0.023-0.241-0.034-0.359c-0.122-0.003-0.244-0.004-0.362-0.007
		C61.244,32.204,61.263,32.379,61.281,32.556z"/>
	<path fill="#7D5429" d="M60.997,32.682c-0.023-0.221-0.045-0.441-0.067-0.662c-0.121-0.004-0.241-0.011-0.359-0.018
		c0.011,0.113,0.022,0.227,0.035,0.339c0.015,0.131,0.029,0.261,0.045,0.391c0.117,0.007,0.234,0.012,0.354,0.017
		C61.001,32.726,61,32.704,60.997,32.682z"/>
	<path fill="#7D5429" d="M67.804,31.242c-0.094,0.029-0.188,0.057-0.286,0.084c0.002,0.081,0.005,0.16,0.008,0.24
		c0.004,0.168,0.009,0.337,0.012,0.507c0.095-0.026,0.19-0.054,0.283-0.08C67.815,31.744,67.809,31.492,67.804,31.242z"/>
	<path fill="#7D5429" d="M66.729,32.029c-0.004-0.166-0.012-0.333-0.02-0.499c-0.104,0.022-0.21,0.045-0.318,0.066
		c0.008,0.157,0.016,0.313,0.021,0.471c0.003,0.087,0.007,0.175,0.009,0.263c0.105-0.021,0.21-0.043,0.312-0.064
		C66.732,32.188,66.731,32.108,66.729,32.029z"/>
	<path fill="#7D5429" d="M68.31,31.404c0-0.109-0.002-0.22-0.003-0.33c-0.087,0.032-0.176,0.063-0.27,0.094
		c0.004,0.253,0.009,0.504,0.013,0.757c0.062-0.02,0.125-0.039,0.185-0.06c0.027-0.008,0.052-0.016,0.078-0.024
		C68.311,31.694,68.311,31.55,68.31,31.404z"/>
	<path fill="#7D5429" d="M69.205,30.709c-0.074,0.033-0.15,0.068-0.23,0.103c0,0.013,0,0.026,0,0.04
		c-0.003,0.249-0.004,0.498-0.007,0.747c0.077-0.03,0.152-0.062,0.225-0.093C69.197,31.241,69.2,30.975,69.205,30.709z"/>
	<path fill="#7D5429" d="M68.771,31.677c0-0.261,0.001-0.521,0.002-0.782c-0.081,0.034-0.164,0.067-0.25,0.101
		c0.002,0.183,0.004,0.367,0.004,0.55c0,0.073-0.001,0.147-0.001,0.222C68.61,31.736,68.692,31.706,68.771,31.677z"/>
	<path fill="#7D5429" d="M65.542,32.359c-0.009-0.202-0.021-0.405-0.033-0.608c-0.112,0.018-0.226,0.033-0.341,0.049
		c0.014,0.224,0.027,0.447,0.038,0.672c0.001,0.018,0.001,0.035,0.002,0.054c0.113-0.015,0.227-0.03,0.337-0.047
		C65.544,32.438,65.543,32.399,65.542,32.359z"/>
	<path fill="#7D5429" d="M66.143,32.074c-0.007-0.142-0.015-0.284-0.021-0.426c-0.11,0.021-0.22,0.039-0.332,0.058
		c0.013,0.243,0.025,0.487,0.036,0.729c0.111-0.018,0.221-0.036,0.33-0.057C66.152,32.277,66.147,32.175,66.143,32.074z"/>
	<path fill="#7D5429" d="M63.583,31.963c-0.119,0.008-0.239,0.017-0.361,0.024c0.012,0.154,0.023,0.309,0.036,0.463
		c0.007,0.086,0.012,0.174,0.019,0.259c0.122-0.006,0.24-0.016,0.358-0.024C63.618,32.444,63.601,32.204,63.583,31.963z"/>
	<path fill="#7D5429" d="M62.315,32.689c-0.019-0.221-0.04-0.44-0.06-0.659c-0.121,0.003-0.243,0.003-0.364,0.006
		c0.003,0.039,0.007,0.079,0.011,0.118c0.018,0.202,0.037,0.403,0.056,0.604c0.12-0.001,0.24-0.002,0.361-0.005
		C62.319,32.731,62.316,32.711,62.315,32.689z"/>
	<path fill="#7D5429" d="M69.576,31.148c0.005-0.175,0.011-0.35,0.017-0.525c0.002-0.033,0.003-0.067,0.004-0.101
		c-0.068,0.033-0.138,0.067-0.208,0.101c-0.003,0.134-0.007,0.268-0.01,0.401c-0.002,0.136-0.006,0.271-0.009,0.405
		c0.067-0.029,0.135-0.061,0.2-0.09C69.571,31.275,69.573,31.212,69.576,31.148z"/>
	<path fill="#7D5429" d="M64.252,32.101c-0.005-0.064-0.009-0.13-0.014-0.194c-0.118,0.012-0.236,0.021-0.357,0.033
		c0.018,0.24,0.036,0.481,0.051,0.723c0.119-0.011,0.236-0.021,0.352-0.031C64.275,32.453,64.264,32.276,64.252,32.101z"/>
</g>
<ellipse transform="matrix(0.998 0.0632 -0.0632 0.998 1.5637 -3.8883)" opacity="0.6" cx="62.24" cy="22.771" rx="3.971" ry="4.35"/>
<linearGradient id="SVGID_5_" gradientUnits="userSpaceOnUse" x1="58.3511" y1="22.7705" x2="66.1279" y2="22.7705">
	<stop  offset="0" style="stop-color:#FC240C"/>
	<stop  offset="0.248" style="stop-color:#E6231B"/>
	<stop  offset="0.7398" style="stop-color:#BF2235"/>
	<stop  offset="0.9967" style="stop-color:#B0213F"/>
</linearGradient>
<path fill="url(#SVGID_5_)" d="M62.197,27.033c-0.075,0-0.151-0.002-0.228-0.006c-1.034-0.066-1.979-0.569-2.661-1.419
	c-0.684-0.85-1.02-1.944-0.948-3.083c0.143-2.253,1.865-4.018,3.921-4.018c0.075,0,0.151,0.003,0.228,0.008
	c1.034,0.065,1.979,0.568,2.661,1.417c0.683,0.851,1.02,1.946,0.947,3.085C65.976,25.27,64.253,27.033,62.197,27.033z"/>
<linearGradient id="SVGID_6_" gradientUnits="userSpaceOnUse" x1="61.1211" y1="27.4961" x2="63.7238" y2="18.4195">
	<stop  offset="0.3011" style="stop-color:#050505"/>
	<stop  offset="1" style="stop-color:#050505;stop-opacity:0"/>
</linearGradient>
<polygon fill="url(#SVGID_6_)" points="66.315,16.21 62.996,21.563 65.976,22.771 59.021,28.573 61.682,23.913 58.855,23.194 
	62.248,17.401 "/>
<radialGradient id="SVGID_7_" cx="44.7822" cy="11.917" r="2.2252" gradientUnits="userSpaceOnUse">
	<stop  offset="0" style="stop-color:#FFFFFF;stop-opacity:0.2"/>
	<stop  offset="0.9247" style="stop-color:#FFFFFF;stop-opacity:0"/>
</radialGradient>
<ellipse fill-rule="evenodd" clip-rule="evenodd" fill="url(#SVGID_7_)" cx="44.782" cy="11.917" rx="2.263" ry="2.186"/>
<radialGradient id="SVGID_8_" cx="83.7441" cy="33.6846" r="2.2245" gradientUnits="userSpaceOnUse">
	<stop  offset="0" style="stop-color:#FFFFFF;stop-opacity:0.2"/>
	<stop  offset="0.9247" style="stop-color:#FFFFFF;stop-opacity:0"/>
</radialGradient>
<ellipse fill-rule="evenodd" clip-rule="evenodd" fill="url(#SVGID_8_)" cx="83.744" cy="33.684" rx="2.263" ry="2.187"/>
</svg>
